<?xml version="1.0" standalone="no"?>
<!DOCTYPE svg PUBLIC "-//W3C//DTD SVG 20010904//EN"
 "http://www.w3.org/TR/2001/REC-SVG-20010904/DTD/svg10.dtd">
<svg version="1.0" xmlns="http://www.w3.org/2000/svg"
 width="960.000000pt" height="960.000000pt" viewBox="0 0 960.000000 960.000000"
 preserveAspectRatio="xMidYMid meet">
<metadata>
Created by potrace 1.14, written by Peter Selinger 2001-2017
</metadata>
<g transform="translate(0.000000,960.000000) scale(0.100000,-0.100000)"
fill="#000000" stroke="none">
<path d="M1800 5824 l0 -3775 -300 -301 -300 -302 0 -723 0 -723 3600 0 3600
0 0 723 0 722 -57 60 c-31 33 -166 171 -300 306 l-243 245 0 3772 0 3772
-3000 0 -3000 0 0 -3776z m5383 3149 c-7 -2 -21 -2 -30 0 -10 3 -4 5 12 5 17
0 24 -2 18 -5z m-4015 -747 l132 -135 0 -746 0 -745 1498 2 1497 3 5 747 5
748 140 140 c77 77 143 136 147 132 4 -4 8 -471 8 -1037 l0 -1030 -1797 0
-1798 0 -3 1038 c-2 987 -1 1037 15 1028 10 -5 78 -70 151 -145z m260 -2252
c70 -35 138 -112 156 -178 12 -41 14 -139 13 -521 l-2 -470 -295 0 -295 0 0
490 0 490 23 45 c60 115 148 169 278 170 56 0 80 -5 122 -26z m-269 -1640
l141 -146 2 -741 3 -742 1475 -3 c811 -1 1485 0 1498 3 l22 5 0 740 0 739 136
140 c75 78 143 141 150 141 12 0 14 -167 12 -1032 l-3 -1033 -1790 -2 c-1351
-1 -1792 2 -1797 10 -11 16 -9 2067 1 2067 5 0 72 -66 150 -146z m1671 -2531
l2365 0 297 -294 c172 -170 298 -302 298 -312 0 -17 -5 -18 -52 -10 -54 8
-5670 12 -5832 3 -59 -3 -91 -1 -93 6 -2 6 134 149 303 317 263 261 310 304
328 298 12 -5 1085 -8 2386 -8z m-3003 -695 c-2 -13 -4 -3 -4 22 0 25 2 35 4
23 2 -13 2 -33 0 -45z m5962 -180 c-1 -128 -4 -215 -8 -193 -7 44 -3 425 4
425 3 0 4 -105 4 -232z m-5951 -274 c1 4 13 1 27 -8 22 -15 271 -16 2967 -14
l2943 3 5 30 6 30 6 -35 c3 -19 5 -36 4 -37 -2 -2 -1348 -3 -2992 -3 -2656 0
-2989 2 -2988 15 0 8 2 113 5 233 l3 217 6 -220 c3 -121 7 -216 8 -211z"/>
<path d="M3264 5250 c-32 -13 -47 -65 -29 -100 8 -16 19 -31 24 -34 5 -3 0
-35 -11 -71 -27 -87 -22 -95 50 -95 78 0 86 10 61 74 -24 65 -24 98 1 114 30
18 26 67 -6 97 -28 26 -53 30 -90 15z"/>
</g>
</svg>
